<?xml version="1.0" encoding="utf-8"?>
<!-- Generator: Adobe Illustrator 25.4.1, SVG Export Plug-In . SVG Version: 6.00 Build 0)  -->
<svg version="1.1" id="Layer_1" xmlns="http://www.w3.org/2000/svg" xmlns:xlink="http://www.w3.org/1999/xlink" x="0px" y="0px"
	 viewBox="0 0 290.5 48" style="enable-background:new 0 0 290.5 48;" xml:space="preserve">
<style type="text/css">
	.st0{fill:#EC5F57;}
	.st1{fill:#FFFFFF;}
</style>
<g>
	<g>
		<path class="st0" d="M0.3,12.2h8.5v9.7h4.4v-9.7h8.5v28.3h-8.5V29.4H8.8v11.1H0.3V12.2z"/>
		<path class="st0" d="M23.6,26.3c0-10.3,3.9-14.7,11-14.7s11,4.4,11,14.7c0,10.3-3.9,14.7-11,14.7S23.6,36.6,23.6,26.3z M36.7,26.3
			c0-5.4-0.8-6.9-2.1-6.9c-1.4,0-2.1,1.6-2.1,6.9c0,5.4,0.8,6.9,2.1,6.9S36.7,31.7,36.7,26.3z"/>
		<path class="st0" d="M47.7,29.9V12.2h8.7v18.4c0,1.8,0.4,3,1.9,3s1.9-1.2,1.9-3V12.2h8.7v17.8c0,8.2-4.3,11.1-10.6,11.1
			C52,41,47.7,38.1,47.7,29.9z"/>
		<path class="st0" d="M69.6,38.5l2.4-6.7c2.6,1.5,5,2.1,7.7,2.1c2,0,2.5-0.4,2.5-1.3c0-0.8-0.8-1-3.4-2l-1.3-0.5
			c-5.2-1.9-7.4-4.9-7.4-9.3c0-5.3,3.5-9.2,11.1-9.2c3.5,0,6.5,0.6,9.7,2.5l-2.4,6.9c-2.6-1.6-5.1-2.3-7.3-2.3
			c-1.6,0-2.3,0.5-2.3,1.4c0,0.9,0.8,1.4,2.7,2l1.1,0.4c6.1,1.9,8,4.3,8,9c0,6.6-4.1,9.5-11.1,9.5C76.4,41,73.1,40.4,69.6,38.5z"/>
		<path class="st0" d="M92.8,12.2h19.5v7.4H102v3.2h8.9v6.9H102v3.4h10.4v7.4H92.8V12.2z"/>
		<path class="st0" d="M180.3,19.9h-6.5v20.5h-9.2V19.9h-6.5v-7.8h22.2V19.9z"/>
		<path class="st0" d="M193.5,36.4h-6l-0.7,4h-8.6l5.7-28.3h13.2l5.7,28.3h-8.6L193.5,36.4z M192.2,29.4l-0.1-0.5
			c-0.6-3.1-1-5.8-1.6-10.1h-0.1c-0.7,4.3-1.1,6.9-1.6,10.1l-0.1,0.5H192.2z"/>
		<path class="st0" d="M204.2,12.2h9.1v20.7h9.4v7.6h-18.5V12.2z"/>
		<path class="st0" d="M224.1,12.2h19.5v7.4h-10.4v3.2h8.9v6.9h-8.9v3.4h10.4v7.4h-19.5V12.2z"/>
		<path class="st0" d="M245.3,12.2h10.5l2.6,11.7c0.5,2.1,0.9,4.1,1.3,6.2h0l0-17.9h6.7v28.3H256l-2.6-11.7
			c-0.5-2.1-0.9-4.1-1.3-6.2h0l0,17.9h-6.7L245.3,12.2L245.3,12.2z"/>
		<path class="st0" d="M290.3,19.9h-6.5v20.5h-9.2V19.9h-6.5v-7.8h22.2L290.3,19.9L290.3,19.9z"/>
	</g>
	<g>
		<path class="st1" d="M130.5,28.7c-1.4,2.3-3.6,4.3-5.3,4.3c-0.3,0-0.4,0-0.7,0c-2.4,0-3.5-4.1-3.5-5.3c0-3.3,2.8-8.9,4.5-10.5
			c0.2-0.2,1.9-0.8,2.3-0.8c0.3,0,1.2,0.5,1.4,0.6c0.2,0.2-0.3,0.6-0.4,0.8c0.8,0.9,2.4,1.4,3,2.1c0.8,1.1,0.9,2,0.9,3.1
			C132.8,24.8,131.5,27.1,130.5,28.7z M128.3,18.3c-1.4,1.7-4.6,8.6-4.6,11.4c0,0.3,0,0.7,0.2,1h0.3c1.3-0.5,5.2-6.4,5.2-8.7
			C129.4,20.5,129.2,20.2,128.3,18.3z"/>
		<path class="st1" d="M150.7,21.1c-0.9,0.1-1.1,1.2-1.8,1.6c-4.3,2.8-10,1.9-10,3.2c0,0.5,2.9,3.5,3.1,3.8c0.4,0.7,0.5,1.9,1.3,2.3
			c0.2,0.9,0.3,2.4,0.3,2.7c0,2.5-1,7.5-4,7.5c-0.3,0-0.7-0.1-1-0.1c-0.7,0-2.3-1.8-2.6-2.3c-1.3-2.4-1.4-3.8-1.4-6
			c0-3.7,0.7-5.9,1-8.3c-0.4-0.2-0.8-0.7-1.5-0.9c0.1-0.1,0.1-0.4,0.3-0.5c-0.2-0.2-0.5-0.4-0.6-0.5c0.5-0.3,1.6-0.4,2.3-0.4
			c0.9-2.9,1.6-6,3-8.7c1.1-2,2.7-5.6,5.5-8.4c0.2-0.2,1-0.2,1.7,0c0.2,0,0.2-0.2,0.5-0.2c0.3,0,0.9,0.6,0.9,0.9
			c0,0.6-1.4,1.5-1.9,2.1c-0.9,1.1-1.1,1.6-1.8,2.9c-0.9,1.8-1.2,2.2-1.5,3.1c-0.8,2.6-1.9,5.1-2.7,7.8c0.1,0,0,0.1,0.3,0.1
			c0.3,0,4.6-0.9,6.9-1.6c1.5-0.5,3.3-1.5,4.9-2.4C151.4,20.3,150.7,20.2,150.7,21.1z M138.6,27.2c-0.2,1.6-1.3,6.7-1.3,8.9
			c0,0.3,0.2,1.9,0.4,2.7c0.1,0.4,0.6,0.8,0.9,0.9c0.9-0.4,2.2-4.5,2.2-6C140.9,31.8,140,29,138.6,27.2z"/>
	</g>
</g>
</svg>
